<?xml version="1.0" encoding="utf-8"?><!-- Uploaded to: SVG Repo, www.svgrepo.com, Generator: SVG Repo Mixer Tools -->
<svg fill="#000000" width="800px" height="800px" viewBox="0 0 1000 1000" xmlns="http://www.w3.org/2000/svg"><path d="M172 445h656q19 0 33 13.5t14 33.5v16q0 20-14 33.5T828 555H172q-19 0-33-13.5T125 508v-16q0-20 14-33.5t33-13.5zm0-300h656q19 0 33 13.5t14 33.5v22q0 20-14 34t-33 14H172q-19 0-33-14t-14-34v-22q0-20 14-33.5t33-13.5zm0 593h656q19 0 33 14t14 34v22q0 20-14 33.5T828 855H172q-19 0-33-13.5T125 808v-22q0-20 14-34t33-14z"/></svg>